<?xml version="1.0" encoding="iso-8859-1"?>
<!-- Generator: Adobe Illustrator 19.0.0, SVG Export Plug-In . SVG Version: 6.00 Build 0)  -->
<svg version="1.1" id="Layer_1" xmlns="http://www.w3.org/2000/svg" xmlns:xlink="http://www.w3.org/1999/xlink" x="0px" y="0px"
	 viewBox="0 0 469.338 469.338" style="enable-background:new 0 0 469.338 469.338;" xml:space="preserve">
<g>
	<g>
		<g>
			<path d="M458.669,106.671h-96V53.338c0-2.833-1.125-5.542-3.125-7.542L316.89,3.143c-1.299-1.303-3-2.095-4.829-2.589
				c-0.46-0.124-0.867-0.207-1.339-0.27c-0.474-0.064-0.895-0.28-1.387-0.28H202.669c-5.896,0-10.667,4.771-10.667,10.667v42.667
				c0,5.896,4.771,10.667,10.667,10.667h96v42.667h-128v-96c0-4.312-2.594-8.208-6.583-9.854c-3.99-1.667-8.573-0.729-11.625,2.313
				l-42.667,42.667c-2,2-3.125,4.708-3.125,7.542v53.333h-96c-5.896,0-10.667,4.771-10.667,10.667v309.333
				c0,23.531,19.135,42.667,42.667,42.667h384c23.531,0,42.667-19.135,42.667-42.667V117.338
				C469.336,111.442,464.565,106.671,458.669,106.671z M234.669,405.338c-64.688,0-117.333-52.635-117.333-117.333
				s52.646-117.333,117.333-117.333s117.333,52.635,117.333,117.333S299.357,405.338,234.669,405.338z"/>
			<path d="M242.224,216.476c-0.987-0.99-2.169-1.775-3.482-2.318c-2.607-1.078-5.539-1.078-8.146,0
				c-1.313,0.543-2.495,1.328-3.482,2.318l-42.654,42.654c-4.167,4.167-4.167,10.917,0,15.083c4.167,4.167,10.917,4.167,15.083,0
				l24.458-24.458v102.25c0,5.896,4.771,10.667,10.667,10.667s10.667-4.771,10.667-10.667v-102.25l24.458,24.458
				c2.083,2.083,4.813,3.125,7.542,3.125c2.729,0,5.458-1.042,7.542-3.125c4.167-4.167,4.167-10.917,0-15.083L242.224,216.476z"/>
		</g>
	</g>
</g>
<g>
</g>
<g>
</g>
<g>
</g>
<g>
</g>
<g>
</g>
<g>
</g>
<g>
</g>
<g>
</g>
<g>
</g>
<g>
</g>
<g>
</g>
<g>
</g>
<g>
</g>
<g>
</g>
<g>
</g>
</svg>
