<?xml version="1.0" encoding="iso-8859-1"?>
<!-- Generator: Adobe Illustrator 19.0.0, SVG Export Plug-In . SVG Version: 6.00 Build 0)  -->
<svg version="1.1" id="Capa_1" xmlns="http://www.w3.org/2000/svg" xmlns:xlink="http://www.w3.org/1999/xlink" x="0px" y="0px"
	 viewBox="0 0 512 512" style="enable-background:new 0 0 512 512;" xml:space="preserve">
<g>
	<g>
		<path d="M237.431,215.22l-62-59.999C165.926,146.024,150,152.797,150,166v15H75c-8.284,0-15,6.716-15,15v60
			c0,8.284,6.716,15,15,15h75v15c0,13.274,15.982,19.923,25.431,10.779l62-60C243.516,230.891,243.524,221.117,237.431,215.22z
			 M179.258,251.328C177.294,245.331,171.653,241,165,241H90v-30h75c6.653,0,12.294-4.331,14.258-10.328L205.43,226L179.258,251.328
			z"/>
	</g>
</g>
<g>
	<g>
		<path d="M479.127,242.66l-21.895-87.574C452.215,135.017,434.264,121,413.577,121H302v-15c0-24.813-20.187-45-45-45H45
			C20.187,61,0,81.187,0,106v240c0,24.813,20.187,45,45,45h15c0,33.084,26.916,60,60,60s60-26.916,60-60c13.995,0,148.417,0,152,0
			c0,33.084,26.916,60,60,60s60-26.916,60-60h15c24.813,0,45-20.187,45-45v-60C512,265.387,498.068,247.966,479.127,242.66z
			 M120,421c-16.542,0-30-13.458-30-30s13.458-30,30-30s30,13.458,30,30S136.542,421,120,421z M272,361H171.928
			c-10.391-17.916-29.769-30-51.928-30s-41.537,12.084-51.928,30H45c-8.271,0-15-6.729-15-15V106c0-8.271,6.729-15,15-15h212
			c8.271,0,15,6.729,15,15C272,118.462,272,352.304,272,361z M362,151h51.577c6.896,0,12.879,4.672,14.552,11.362L447.789,241
			h-34.576l4.394-4.394c5.858-5.858,5.858-15.355,0-21.213c-5.857-5.858-15.355-5.858-21.213,0l-24.641,24.641
			C366.066,237.9,362,232.423,362,226V151z M392,421c-16.542,0-30-13.458-30-30s13.458-30,30-30s30,13.458,30,30
			S408.542,421,392,421z M482,301h-15c-8.284,0-15,6.716-15,15s6.716,15,15,15h15v15c0,8.271-6.729,15-15,15h-23.072
			c-10.391-17.916-29.769-30-51.928-30s-41.537,12.084-51.928,30H302V151h30v75c0,24.813,20.187,45,45,45h90c8.271,0,15,6.729,15,15
			V301z"/>
	</g>
</g>
<g>
</g>
<g>
</g>
<g>
</g>
<g>
</g>
<g>
</g>
<g>
</g>
<g>
</g>
<g>
</g>
<g>
</g>
<g>
</g>
<g>
</g>
<g>
</g>
<g>
</g>
<g>
</g>
<g>
</g>
</svg>
